<svg width="1661" height="948" viewBox="0 0 1661 948" fill="none" xmlns="http://www.w3.org/2000/svg">
<path opacity="0.4" d="M247.713 916.291L478.311 857.315L574.649 783.102L546.015 587.407L356.91 564.951L358.644 425.228L140.601 362.959L0.145741 398.881L89.0117 704.287L226.211 742.379L247.713 916.291Z" fill="#4D5BCE" style="fill:#4D5BCE;fill:color(display-p3 0.3020 0.3569 0.8078);fill-opacity:1;"/>
<path opacity="0.4" d="M302.126 231.078L284.323 482.857L321.218 603.21L504.976 634.05L582.906 449.24L707.322 493.739L829.706 291.776L840.549 138.419L540.257 135.069L464.223 262.484L302.126 231.078Z" fill="#43D9AD" style="fill:#43D9AD;fill:color(display-p3 0.2627 0.8510 0.6784);fill-opacity:1;"/>
<path opacity="0.4" d="M890.573 263.701L945.94 509.333L1015.61 611.953L1199.33 581.452L1220.41 380.018L1351.58 381.864L1410.04 149.605L1376.31 -0.00705727L1089.6 94.6528L1053.84 240.797L890.573 263.701Z" fill="#EAB308" style="fill:#EAB308;fill:color(display-p3 0.9176 0.7020 0.0314);fill-opacity:1;"/>
<path opacity="0.4" d="M1533.85 321.662L1297.48 302.7L1184.49 341.999L1155.54 537.738L1329.04 620.749L1287.26 753.277L1476.86 883.64L1620.83 895.19L1623.98 575.319L1504.36 494.328L1533.85 321.662Z" fill="#6D28D9" style="fill:#6D28D9;fill:color(display-p3 0.4275 0.1569 0.8510);fill-opacity:1;"/>
</svg>
