<svg width="168" height="168" viewBox="0 0 168 168" fill="none" xmlns="http://www.w3.org/2000/svg">
<rect width="168" height="168" fill="#5865F2" style="fill:#5865F2;fill:color(display-p3 0.3451 0.3961 0.9490);fill-opacity:1;"/>
<g clip-path="url(#clip0_117_2)">
<path d="M126.346 45.7437C118.33 42.074 109.868 39.4706 101.176 38C99.9868 40.1263 98.9106 42.314 97.9521 44.5539C88.6933 43.1587 79.2777 43.1587 70.0189 44.5539C69.0599 42.3142 67.9837 40.1266 66.7948 38C58.0971 39.483 49.6296 42.0926 41.606 45.7629C25.6771 69.33 21.359 92.3118 23.5181 114.967C32.8464 121.859 43.2875 127.101 54.3875 130.464C56.8869 127.103 59.0985 123.537 60.999 119.804C57.3894 118.455 53.9055 116.792 50.5876 114.833C51.4608 114.2 52.3148 113.547 53.1401 112.914C62.7943 117.454 73.3314 119.808 83.9999 119.808C94.6684 119.808 105.206 117.454 114.86 112.914C115.695 113.595 116.549 114.248 117.412 114.833C114.088 116.795 110.598 118.462 106.982 119.813C108.88 123.544 111.092 127.108 113.593 130.464C124.703 127.115 135.152 121.875 144.482 114.977C147.015 88.7038 140.154 65.9331 126.346 45.7437ZM63.7337 101.034C57.7172 101.034 52.7466 95.5743 52.7466 88.8573C52.7466 82.1403 57.5445 76.6324 63.7146 76.6324C69.8846 76.6324 74.8168 82.1403 74.7113 88.8573C74.6057 95.5743 69.8654 101.034 63.7337 101.034ZM104.266 101.034C98.24 101.034 93.2886 95.5743 93.2886 88.8573C93.2886 82.1403 98.0864 76.6324 104.266 76.6324C110.446 76.6324 115.34 82.1403 115.234 88.8573C115.128 95.5743 110.398 101.034 104.266 101.034Z" fill="white" style="fill:white;fill:white;fill-opacity:1;"/>
</g>
<defs>
<clipPath id="clip0_117_2">
<rect width="122" height="92.4644" fill="white" style="fill:white;fill:white;fill-opacity:1;" transform="translate(23 38)"/>
</clipPath>
</defs>
</svg>
