<svg width="168" height="168" viewBox="0 0 168 168" fill="none" xmlns="http://www.w3.org/2000/svg">
<rect width="168" height="168" fill="#121212" style="fill:#121212;fill:color(display-p3 0.0706 0.0706 0.0706);fill-opacity:1;"/>
<path d="M83.9996 23C50.3112 23 23 50.3111 23 84.0004C23 117.691 50.3112 145 83.9996 145C117.692 145 145 117.691 145 84.0004C145 50.3133 117.692 23.0029 83.9989 23.0029L83.9996 23ZM111.974 110.98C110.881 112.772 108.536 113.34 106.744 112.24C92.4216 103.492 74.3918 101.51 53.1586 106.362C51.1124 106.828 49.0729 105.546 48.6067 103.499C48.1383 101.452 49.4152 99.4125 51.4665 98.9463C74.7029 93.6353 94.6345 95.9233 110.714 105.75C112.505 106.85 113.074 109.188 111.974 110.98ZM119.44 94.3681C118.063 96.6081 115.135 97.3146 112.899 95.9379C96.5021 85.8571 71.5081 82.9383 52.114 88.8255C49.5988 89.5852 46.9423 88.1677 46.1789 85.6568C45.4213 83.1415 46.8396 80.49 49.3504 79.7252C71.5037 73.0032 99.0443 76.2593 117.874 87.8305C120.11 89.2072 120.817 92.1348 119.44 94.3681ZM120.081 77.0722C100.421 65.3948 67.9847 64.321 49.2142 70.0181C46.2 70.9323 43.0125 69.2307 42.099 66.2164C41.1856 63.2007 42.8857 60.0153 45.9021 59.0989C67.4493 52.5576 103.269 53.8214 125.904 67.2588C128.621 68.8679 129.51 72.3695 127.9 75.0771C126.297 77.7883 122.786 78.6821 120.084 77.0722H120.081Z" fill="#1ED760" style="fill:#1ED760;fill:color(display-p3 0.1176 0.8431 0.3765);fill-opacity:1;"/>
</svg>
